<?xml version="1.0" encoding="UTF-8"?>
<svg xmlns="http://www.w3.org/2000/svg" id="Capa_1" data-name="Capa 1" viewBox="0 0 1241.83 573.49">
  <defs>
    <style>.cls-1{fill:#ef7925;}</style>
  </defs>
  <path class="cls-1" d="M543,145.93V20.71c63.09-6.26,97.29,5.3,97.29,60.2C640.31,136.29,602.26,145.93,543,145.93ZM442.85,325.56H589.74c56.34,0,117.51-17.33,117.51-87.65,0-60.68-56.35-80.43-108.84-84.76,20.7-1.93,92.46-13,92.46-73.69,0-81.39-112.69-77-131.47-77-27.46,0-77.54,1.92-112.7,2.89V21.67c47.68,0,48.64,0,48.64,70.32V237c0,56.83,0,72.72-39.49,72.72h-13Zm138.22-16.85c-38.05,0-38.05-9.15-38.05-82.36V163.26C634.53,158.93,656.2,188.31,656.2,237,656.2,263,649.46,308.71,581.07,308.71Zm-276,16.85H401V5.3H305.11V21.67h6.74c42.38,0,42.87,4.34,42.87,69.83V237c0,56.83,0,72.72-40.46,72.72h-9.15Zm-296.18,0H267.06L269,231.65H258.4c-22.64,72.72-40,78-104.51,78-48.16,0-48.16-12-48.16-62.13V91.5c0-60.68,1-69.83,42.86-69.83h14V5.3H8.93V21.67h6.74c42.38,0,43.82,9.63,43.82,69.83V237c0,62.12,0,72.72-41.41,72.72H8.93Zm880.84,0h131V309.67c-45.27,0-36.12-25.53-24.56-53.46L1068,82.35l79.94,194.09c9.64,23.6,4.34,33.23-31.78,33.23v15.89h125.7V309.67c-25,0-35.64-14.45-42.39-31.3L1085.79,0h-9.64L962,276.44c-8.19,19.75-16.38,28.41-32.27,28.41-16.86,0-33.23-22.15-48.64-42.38L845,209.5c-9.64-14-34.2-41.9-50.09-42.38,59.72-5.3,96.8-36.61,96.8-81.39,0-77.06-79.46-83.8-139.66-83.8-8.67,0-24.08,0-37.09.48V16.86h33.72c52,0,88.61,16.85,88.61,69.83,0,44.79-24.08,68.87-81.39,68.87h-27v17.33c27,0,37.56,2.41,63.09,38.05l45.27,68.87C864.73,315.45,871.47,325.56,889.77,325.56Z"></path>
  <path class="cls-1" d="M10,537c8.45,5.34,25.79,12.89,41.12,12.89,11.78,0,23.79-3.77,23.79-20.45,0-14-12.67-18.22-28.23-22.45-22-6-42.46-14.67-42.46-43.12,0-27.12,20.9-43.56,50-43.56,20.67,0,39.34,9.11,50.9,20.89l-14.45,18c-11.56-9.55-24.23-15.78-36.45-15.78-10,0-21.79,4.23-21.79,18s12.89,18,29.57,23.11c20.22,6.45,41.56,15.12,41.56,43.79,0,29.34-20.89,45.13-52.9,45.13-21.78,0-43.12-8.67-50.68-14.23Z"></path>
  <path class="cls-1" d="M135.07,423H224.2v23.56h-62v37.13h53.12v23.56H162.19v40h63.57v23.56H135.07Z"></path>
  <path class="cls-1" d="M362,559.26c-12.22,8.45-31.12,14.23-51.79,14.23-40.23,0-65.35-24.68-65.35-76.25,0-57.57,34.45-76.9,65.13-76.9,16.89,0,36.67,4.89,52.46,26.67l-19.56,14.67c-9.78-12.23-20-18.45-33.12-18.45-23.12,0-37.12,19.12-37.12,52.24,0,34.89,11.55,56,38.67,56,8.67,0,19.12-2.44,23.56-5.33V513.92H313.94V493.47h48Z"></path>
  <path class="cls-1" d="M422.56,423v99.58c0,21.79,12.22,28.23,29.12,28.23,16.45,0,27.78-8.89,27.78-27.11V423h27.12V527.47c0,29.12-22.67,46-55.79,46-36.45,0-55.13-14.67-55.13-49.57V423Z"></path>
  <path class="cls-1" d="M570.29,570.82H543.17V423h49.57c32.68,0,53.35,10.67,53.35,40.9,0,22.23-13.34,34.23-25.56,39.12,6,2.23,8.89,6,12.22,13.56l24.45,54.24H628.31L607,524.14c-3.12-6.89-6.89-11.56-14.67-11.56h-22Zm22.23-79.35c16,0,26-8.67,26-25.57,0-18.89-11.56-21.34-32.68-21.34H570.29v46.91Z"></path>
  <path class="cls-1" d="M735.15,573.49c-39.57,0-63.13-25.57-63.13-76.25,0-56.9,34.45-76.9,65.57-76.9,33.12,0,61.8,20.45,61.8,76.9C799.39,548.15,774.05,573.49,735.15,573.49ZM736.7,551c26.9,0,35.12-26.46,35.12-53.13,0-22.67-7.11-54.68-35.56-54.68-26.68,0-36.46,26.45-36.46,52.9C699.8,521.47,706.25,551,736.7,551Z"></path>
  <path class="cls-1" d="M830.2,537c8.45,5.34,25.78,12.89,41.12,12.89,11.78,0,23.78-3.77,23.78-20.45,0-14-12.67-18.22-28.23-22.45-22-6-42.45-14.67-42.45-43.12,0-27.12,20.89-43.56,50-43.56,20.67,0,39.34,9.11,50.9,20.89l-14.44,18c-11.56-9.55-24.23-15.78-36.46-15.78-10,0-21.78,4.23-21.78,18s12.89,18,29.56,23.11c20.23,6.45,41.57,15.12,41.57,43.79,0,29.34-20.9,45.13-52.9,45.13-21.79,0-43.13-8.67-50.68-14.23Z"></path>
</svg>
