<svg version="1.1" id="Capa_1" xmlns="http://www.w3.org/2000/svg" x="0" y="0" viewBox="0 0 274.5 50.5" xml:space="preserve"><style>.st0{fill:#a10062}</style><path class="st0" d="M56.1 42.2c.5 0 1 .1 1.4.3.4.2.7.4.9.7v-4.6h2.1v11.6h-2.1v-.9c-.3.3-.6.6-1 .8-.4.2-.8.3-1.4.3-.5 0-1-.1-1.5-.3-.5-.2-.9-.5-1.2-.9-.3-.4-.6-.8-.8-1.3-.2-.5-.3-1-.3-1.6 0-.6.1-1.1.3-1.6.2-.5.5-.9.8-1.3.3-.4.7-.7 1.2-.9.6-.2 1.1-.3 1.6-.3m.4 2c-.3 0-.6.1-.8.2-.3.1-.5.3-.6.5-.2.2-.3.4-.4.7-.1.3-.1.5-.1.8 0 .3 0 .6.1.8.1.3.2.5.4.7.2.2.4.3.6.5.3.1.5.2.8.2.3 0 .6-.1.8-.2.2-.1.5-.3.6-.5.2-.2.3-.4.4-.7.1-.3.1-.5.1-.9 0-.3 0-.6-.1-.9-.1-.3-.2-.5-.4-.7-.2-.2-.4-.3-.6-.5h-.8M65.7 42.2c.6 0 1.1.1 1.5.3.5.2.9.5 1.2.8.3.4.6.8.8 1.3.2.5.3 1.1.3 1.7v.7H64c.1.3.1.5.3.7.1.2.3.4.4.5l.6.3c.2.1.5.1.7.1.3 0 .7-.1 1-.2.3-.1.7-.3 1-.6l1.2 1.4c-.5.4-1 .7-1.5.9-.6.2-1.2.3-1.8.3-.6 0-1.1-.1-1.6-.3-.5-.2-.9-.5-1.3-.8-.5-.3-.8-.8-1-1.3-.2-.5-.3-1.1-.3-1.7 0-.6.1-1.2.3-1.7.2-.5.5-.9.8-1.3.3-.4.8-.6 1.2-.8.5-.2 1.1-.3 1.7-.3m0 1.8c-.5 0-.9.1-1.2.4-.3.3-.5.7-.6 1.2h3.5c-.1-.5-.3-.9-.6-1.2-.3-.2-.7-.4-1.1-.4M81.9 41.8c-.5-.3-.9-.5-1.5-.7-.5-.2-1.1-.3-1.7-.3-.3 0-.6 0-.9.1-.3.1-.5.2-.7.3-.2.1-.3.3-.4.4-.1.2-.2.4-.2.6 0 .2.1.4.2.5.1.1.3.3.5.4.2.1.5.2.7.2.3.1.6.1.9.2l.6.1c.5.1 1 .2 1.4.4.4.2.8.4 1.1.6.3.3.6.6.8.9.2.4.3.8.3 1.3 0 .6-.1 1.2-.4 1.6-.3.5-.6.8-1 1.2-.4.3-.9.5-1.5.7-.6.2-1.1.2-1.7.2-.4 0-.9 0-1.3-.1s-.9-.2-1.3-.3c-.4-.1-.8-.3-1.2-.5s-.7-.4-1-.6l1.2-1.8c.2.2.4.3.7.5.3.1.5.3.9.4.3.1.6.2 1 .3.3.1.7.1 1.1.1.3 0 .6 0 .9-.1.3-.1.5-.1.7-.3.2-.1.4-.3.5-.4.1-.2.2-.4.2-.6 0-.2-.1-.4-.2-.5-.1-.1-.3-.3-.5-.4-.2-.1-.5-.2-.8-.3-.3-.1-.6-.1-1-.2l-.7-.1c-.5-.1-1-.2-1.4-.4-.4-.2-.8-.4-1.1-.6-.3-.3-.5-.6-.7-.9-.2-.4-.3-.8-.3-1.3 0-.6.1-1.1.4-1.6.2-.4.6-.8 1-1.1.4-.3.9-.5 1.4-.7.5-.2 1.1-.2 1.7-.2.4 0 .8 0 1.1.1.4 0 .7.1 1.1.2.3.1.7.2 1 .4.3.2.7.3 1.1.5l-1 1.8zM92.4 50.2l-1-2.6h-4.8l-1 2.6h-2.3l4.4-11.3h2.7l4.4 11.3h-2.4zm-1.8-4.7L89 41.2l-1.6 4.4h3.2zM103.6 50.2l-5.7-7.5v7.5h-2.2V38.9h2.1l5.7 7.6v-7.6h2.3v11.3zM113.2 38.7c.5 0 1 .1 1.5.2s.9.3 1.3.5.8.5 1.1.8c.3.3.6.7.9 1.1l-1.9 1.2c-.3-.5-.7-.9-1.2-1.1-.5-.3-1.1-.4-1.7-.4-.5 0-1 .1-1.4.3-.4.2-.8.4-1.1.8-.3.3-.6.7-.7 1.2-.2.5-.3 1-.3 1.5 0 .6.1 1.1.3 1.5.2.5.4.8.8 1.2.3.3.7.6 1.1.7.4.2.9.3 1.4.3.6 0 1.2-.1 1.7-.4.5-.3.9-.6 1.3-1.2l1.8 1.3c-.3.4-.5.7-.9 1-.3.3-.7.5-1.1.8-.4.2-.8.4-1.3.5-.5.1-1 .2-1.5.2-.9 0-1.7-.1-2.4-.4-.7-.3-1.4-.7-1.9-1.2s-.9-1.1-1.2-1.9c-.3-.7-.4-1.5-.4-2.3 0-.9.1-1.6.4-2.4.3-.7.7-1.3 1.2-1.9.5-.5 1.2-.9 1.9-1.2.6-.5 1.4-.7 2.3-.7M124.6 38.7c.9 0 1.7.1 2.4.4.7.3 1.4.7 1.9 1.2s.9 1.1 1.2 1.9c.3.7.4 1.5.4 2.3 0 .8-.1 1.6-.4 2.3-.3.7-.7 1.3-1.2 1.9-.5.5-1.2.9-1.9 1.2-.7.3-1.5.4-2.4.4-.9 0-1.7-.1-2.4-.4-.7-.3-1.4-.7-1.9-1.2s-.9-1.1-1.2-1.9c-.3-.7-.4-1.5-.4-2.3 0-.8.1-1.6.4-2.3.3-.7.7-1.3 1.2-1.9.5-.5 1.2-.9 1.9-1.2.7-.2 1.5-.4 2.4-.4m0 2.2c-.5 0-1 .1-1.4.3-.4.2-.8.4-1.1.8-.3.3-.6.7-.7 1.2-.2.5-.3 1-.3 1.5s.1 1.1.3 1.5c.2.5.4.8.7 1.2.3.3.7.6 1.1.8.4.2.9.3 1.4.3.5 0 1-.1 1.4-.3.4-.2.8-.4 1.1-.8.3-.3.6-.7.7-1.2.2-.5.3-1 .3-1.5s-.1-1.1-.3-1.5c-.2-.5-.4-.8-.7-1.2-.3-.3-.7-.6-1.1-.8-.4-.2-.9-.3-1.4-.3M136.8 38.9c.7 0 1.3.1 1.8.2.5.2.9.4 1.3.7.3.3.6.7.8 1.1.2.4.3.9.3 1.5 0 .5-.1.9-.2 1.3-.2.4-.4.7-.7 1-.3.3-.7.5-1.1.7s-.9.3-1.5.4l3.5 4.5h-2.7l-3.3-4.5h-.7v4.5H132V38.9h4.8zm-2.6 4.9h2.5c.6 0 1.1-.1 1.4-.3.3-.2.5-.6.5-1.1 0-.5-.2-.8-.5-1-.3-.2-.8-.3-1.4-.3h-2.5v2.7zM153.5 41.8c-.5-.3-.9-.5-1.5-.7-.5-.2-1.1-.3-1.7-.3-.3 0-.6 0-.9.1-.3.1-.5.2-.7.3-.2.1-.3.3-.4.4-.1.2-.2.4-.2.6 0 .2.1.4.2.5.1.1.3.3.5.4.2.1.5.2.7.2.3.1.6.1.9.2l.6.1c.5.1 1 .2 1.4.4.4.2.8.4 1.1.6s.6.6.8.9c.2.4.3.8.3 1.3 0 .6-.1 1.2-.4 1.6-.3.5-.6.8-1 1.2-.4.3-.9.5-1.5.7-.6.2-1.1.2-1.7.2-.4 0-.9 0-1.3-.1s-.9-.2-1.3-.3c-.4-.1-.8-.3-1.2-.5-.4-.2-.7-.4-1-.6l1.2-1.8c.2.2.4.3.7.5.3.1.6.3.9.4.3.1.6.2 1 .3.3.1.7.1 1.1.1.3 0 .6 0 .9-.1.3-.1.5-.1.7-.3.2-.1.4-.3.5-.4.1-.2.2-.4.2-.6 0-.2-.1-.4-.2-.5-.1-.1-.3-.3-.5-.4-.2-.1-.5-.2-.8-.3-.3-.1-.6-.1-1-.2l-.7-.1c-.5-.1-1-.2-1.4-.4-.4-.2-.8-.4-1.1-.6-.3-.3-.5-.6-.7-.9-.2-.4-.3-.8-.3-1.3 0-.6.1-1.1.4-1.6.2-.4.6-.8 1-1.1.4-.3.9-.5 1.4-.7.5-.2 1.1-.2 1.7-.2.4 0 .8 0 1.1.1.4 0 .7.1 1.1.2.3.1.7.2 1 .4.3.2.7.3 1.1.5l-1 1.8zM156.2 50.2V38.9h8.4V41h-6.2v2.5h5.9v2.1h-5.9v2.6h6.2v2zM171.7 38.7c.9 0 1.7.2 2.4.5s1.3.7 1.8 1.3l-1.6 1.6c-.3-.4-.7-.7-1.2-.9-.5-.2-1-.3-1.6-.3-.5 0-1 .1-1.4.3-.4.2-.8.4-1.1.8-.3.3-.6.7-.7 1.2-.2.5-.3 1-.3 1.5 0 .6.1 1.1.3 1.6.2.5.4.9.8 1.2.3.3.7.6 1.1.8.4.2.9.3 1.4.3.9 0 1.7-.2 2.2-.6.5-.4.9-1 1-1.9H172V44h5.2v.6c0 .9-.1 1.6-.4 2.4-.3.7-.7 1.3-1.1 1.8-.5.5-1.1.9-1.7 1.2-.7.3-1.4.4-2.2.4-.8 0-1.5-.1-2.2-.4-.7-.3-1.3-.7-1.9-1.2-.5-.5-1-1.1-1.3-1.8-.3-.7-.5-1.5-.5-2.5 0-.9.1-1.6.4-2.4.3-.7.7-1.3 1.2-1.9.5-.5 1.2-.9 1.9-1.2.7-.1 1.5-.3 2.3-.3M188.3 45.7c0 .8-.1 1.5-.4 2.1-.2.6-.6 1.1-1 1.5-.4.4-.9.7-1.5.9-.6.2-1.3.3-2 .3s-1.4-.1-2-.3c-.6-.2-1.1-.5-1.5-.9-.4-.4-.8-.9-1-1.5-.2-.6-.4-1.3-.4-2.1v-6.8h2.3v6.7c0 .5.1.9.2 1.2.1.3.3.6.5.8.2.2.5.4.8.5.3.1.7.2 1.1.2.4 0 .7-.1 1.1-.2.3-.1.6-.3.8-.5.2-.2.4-.5.5-.8.1-.3.2-.7.2-1.2v-6.7h2.3v6.8zM194.9 38.9c.7 0 1.3.1 1.8.2.5.2.9.4 1.3.7.3.3.6.7.8 1.1.2.4.3.9.3 1.5 0 .5-.1.9-.2 1.3-.2.4-.4.7-.7 1-.3.3-.7.5-1.1.7-.4.2-.9.3-1.5.4l3.5 4.5h-2.7l-3.3-4.5h-.7v4.5h-2.3V38.9h4.8zm-2.5 4.9h2.5c.6 0 1.1-.1 1.4-.3.3-.2.5-.6.5-1.1 0-.5-.2-.8-.5-1-.3-.2-.8-.3-1.4-.3h-2.5v2.7zM205.9 38.7c.9 0 1.7.1 2.4.4.7.3 1.4.7 1.9 1.2s.9 1.1 1.2 1.9c.3.7.4 1.5.4 2.3 0 .8-.1 1.6-.4 2.3-.3.7-.7 1.3-1.2 1.9-.5.5-1.2.9-1.9 1.2-.7.3-1.5.4-2.4.4-.9 0-1.7-.1-2.4-.4-.7-.3-1.4-.7-1.9-1.2s-.9-1.1-1.2-1.9c-.3-.7-.4-1.5-.4-2.3 0-.8.1-1.6.4-2.3.3-.7.7-1.3 1.2-1.9.5-.5 1.2-.9 1.9-1.2.8-.2 1.6-.4 2.4-.4m0 2.2c-.5 0-1 .1-1.4.3-.4.2-.8.4-1.1.8-.3.3-.6.7-.7 1.2-.2.5-.3 1-.3 1.5s.1 1.1.3 1.5c.2.5.4.8.7 1.2.3.3.7.6 1.1.8.4.2.9.3 1.4.3.5 0 1-.1 1.4-.3.4-.2.8-.4 1.1-.8.3-.3.6-.7.7-1.2.2-.5.3-1 .3-1.5s-.1-1.1-.3-1.5c-.2-.5-.4-.8-.7-1.2-.3-.3-.7-.6-1.1-.8-.4-.2-.9-.3-1.4-.3M220.9 41.8c-.5-.3-.9-.5-1.5-.7-.5-.2-1.1-.3-1.7-.3-.3 0-.6 0-.9.1-.3.1-.5.2-.7.3-.2.1-.3.3-.4.4-.1.2-.2.4-.2.6 0 .2.1.4.2.5.1.1.3.3.5.4.2.1.5.2.7.2.3.1.6.1.9.2l.6.1c.5.1 1 .2 1.4.4.4.2.8.4 1.1.6.3.3.6.6.8.9.2.4.3.8.3 1.3 0 .6-.1 1.2-.4 1.6-.3.5-.6.8-1 1.2-.4.3-.9.5-1.5.7-.6.2-1.1.2-1.7.2-.4 0-.9 0-1.3-.1s-.9-.2-1.3-.3c-.4-.1-.8-.3-1.2-.5-.4-.2-.7-.4-1-.6l1.2-1.8c.2.2.4.3.7.5.3.1.5.3.9.4.3.1.6.2 1 .3.3.1.7.1 1.1.1.3 0 .6 0 .9-.1.3-.1.5-.1.7-.3.2-.1.4-.3.5-.4.1-.2.2-.4.2-.6 0-.2-.1-.4-.2-.5-.1-.1-.3-.3-.5-.4-.2-.1-.5-.2-.8-.3-.3-.1-.6-.1-1-.2l-.7-.1c-.5-.1-1-.2-1.4-.4-.4-.2-.8-.4-1.1-.6-.3-.3-.5-.6-.7-.9-.2-.4-.3-.8-.3-1.3 0-.6.1-1.1.4-1.6.2-.4.6-.8 1-1.1.4-.3.9-.5 1.4-.7.5-.2 1.1-.2 1.7-.2.4 0 .8 0 1.1.1.4 0 .7.1 1.1.2.3.1.7.2 1 .4.3.2.7.3 1.1.5l-1 1.8z"/><g><path class="st0" d="M54.3 15c-.1-.3-.1-.5-.2-.8-.3-1.1-.9-2.1-1.6-3-.7-.9-1.7-1.6-2.8-2.1-1.1-.5-2.6-.8-4.2-.8-1.3 0-2.5.2-3.7.6-1.2.4-2.3 1.1-3.3 1.9-1 .9-1.7 2-2.3 3.3-.6 1.3-.9 2.9-.9 4.8 0 2.3.3 4.1 1 5.6.6 1.5 1.5 2.7 2.5 3.6 1 .9 2.2 1.5 3.6 1.9 1.3.4 2.7.5 4.1.5 1.5 0 2.9-.2 4-.5s2-.7 2.6-1.2c.4-.3 1.2-1.1 1.2-1.1L52 24.1c-.1.1-.2.2-.3.2-.3.3-.7.5-1.2.8-.4.2-1 .4-1.5.6-.6.2-1.2.2-2 .2-1.9 0-3.3-.5-4.2-1.6-.9-1.1-1.4-2.6-1.5-4h13.2c0-.1.1-.3.1-.6v-.8-1.4c-.1-.7-.2-1.6-.3-2.5m-13.1 2c0-1.5.4-2.6 1.1-3.4.7-.8 1.7-1.2 2.9-1.2 1.4 0 2.4.4 3 1.3.5.9.8 1.9.8 3.4h-7.8zM20.3 9c0 1.9-.3 3.5-1 4.9-.7 1.3-1.5 2.4-2.6 3.2-1.1.8-2.4 1.5-3.9 1.8-1.5.3-3 .6-4.6.6H5.9v10.3H0V.4C1.5.3 2.7.1 4.1.1 5.4 0 6.7 0 7.8 0c4.3 0 7.5.8 9.5 2.3 2 1.5 3 3.7 3 6.7m-6.2.3c0-1.8-.5-3.1-1.6-3.8-1.1-.8-2.5-1.2-4.2-1.2-.9 0-1.5 0-2.5.1V15h1.6c2.2 0 3.8-.4 4.9-1.3 1.2-.8 1.8-2.3 1.8-4.4M144.5 9.9c-.5-.4-3-2-5.9-1.2V29c1 .5 2.9 1.9 5.9 1.2V9.9zM75.8 9.1c-3.7-1.5-6.2.2-6.2.2l-4.3 14.5-4.2-14.5s-2.6-1.7-6.3-.1l.1.2 7.3 20.4h6.6L76 9.2s-.1 0-.2-.1M135.2 24c-.2.1-.4.3-.7.6-.3.2-.6.5-1.1.7-.4.2-.9.4-1.4.5-.5.2-1.1.2-1.8.2-1 0-1.8-.2-2.5-.5-.7-.4-1.2-.8-1.7-1.5-.4-.6-.7-1.3-.9-2.2-.2-.8-.3-1.7-.3-2.7 0-1.9.4-3.4 1.2-4.6.8-1.2 2.2-1.8 4.2-1.8 1.1 0 2.1.3 3 .8.9.5 1.6 1 2.1 1.5 1.1-2.7.6-4.6.4-5-.2-.1-.3-.2-.5-.4-.7-.4-1.5-.8-2.6-1.1-1-.3-2.1-.4-3.4-.4-1 0-2.1.2-3.3.5-1.2.3-2.4.9-3.5 1.7-1.1.8-2 1.9-2.7 3.4-.7 1.4-1.1 3.2-1.1 5.5 0 2.4.4 4.3 1.1 5.7.7 1.5 1.6 2.6 2.6 3.4 1.1.8 2.2 1.4 3.4 1.7 1.2.3 2.4.4 3.4.4 1.6 0 2.9-.2 3.9-.5s1.8-.7 2.3-1.1c.6-.3 1-2.2-.1-4.8M34.5 10.1c-1-1-3.5-2.3-7.3-1.5-.8.2-1.4.4-1.9.6-1.1.5-2.2 1.3-3 2.5-.9 1.4-1 3-1 3.5v14.6h5.9V16c0-.7.3-1.4.9-1.9.6-.5 1.4-.8 2.3-.8.7 0 1.3.1 1.8.3.5.2 1 .5 1.5 1 .1-.1.1-.3.2-.5.7-1.7.7-3.2.6-4M188.6 12.6c-.3-.8-.7-1.5-1.2-2-.1-.1-.4-.4-.7-.6-.5-.4-1.6-1-2.9-1.3-.8-.2-1.8-.3-2.4-.3h-.5c-.8 0-1.5.1-1.8.1-8 .6-9.3 5-9.3 5v16.3h6.4v-15s1-1.2 2.9-1.5c.8-.1 1.5-.1 2.2.1.4.1.7.2 1 .5.2.2.3.4.4.6.2.4.3.9.3 1.4v13.9h5.9V16.1c0-.2.1-2.3-.3-3.5zM94.9 15c-.1-.3-.1-.5-.2-.8-.3-1.1-.9-2.1-1.6-3-.7-.9-1.7-1.6-2.8-2.1-1.3-.5-2.7-.7-4.3-.7-1.3 0-2.5.2-3.7.6-1.2.4-2.3 1-3.3 1.9-1 .9-1.7 2-2.3 3.3-.6 1.3-.9 2.9-.9 4.8 0 2.3.3 4.1 1 5.6.6 1.5 1.5 2.7 2.5 3.6 1 .9 2.2 1.5 3.6 1.9 1.3.4 2.7.5 4.1.5 1.5 0 2.9-.2 4-.5s2-.7 2.6-1.2c.4-.3 1.2-1.1 1.2-1.1l-2.3-3.6c-.1.1-.2.2-.3.2-.3.3-.7.5-1.2.8-.4.2-1 .4-1.5.6-.6.2-1.2.2-2 .2-1.9 0-3.3-.5-4.2-1.6-.9-1.1-1.4-2.6-1.5-4H95c0-.1.1-.3.1-.6V19v-1.4c.1-.8 0-1.7-.2-2.6m-13.1 2c0-1.5.4-2.6 1.1-3.4.7-.8 1.7-1.2 2.9-1.2 1.4 0 2.4.4 3 1.3.5.9.8 1.9.8 3.4h-7.8zM167 15.2c-.3-1-.7-1.9-1.2-2.8-.2-.2-.7-.9-.9-1.1-.6 2.3-2.1 4.5-3.7 4.9-.2 0 0 .3.1.5.3.9.3 1.9.3 2.7 0 .8-.1 1.6-.2 2.4-.1.8-.3 1.5-.7 2.1-.3.6-.8 1.1-1.4 1.5-.6.4-1.3.6-2.2.6-.9 0-1.6-.2-2.2-.6-.6-.4-1-.9-1.4-1.5-.3-.6-.6-1.3-.7-2.1-.1-.8-.2-1.6-.2-2.4 0-.8.1-1.6.2-2.3.1-.8.4-1.4.7-2 .3-.6.8-1.1 1.4-1.5 0 0 .2-.1.3-.3.8-1.2 1.1-2.4 1.6-4.9h-.2c-1.5.1-2.9.3-4.1.9-1.3.6-2.4 1.4-3.3 2.4-.9 1-1.5 2.2-2 3.5-.4 1.3-.7 2.8-.7 4.3s.2 2.9.6 4.2c.4 1.3 1 2.5 1.8 3.5s1.9 1.8 3.2 2.4c1.3.6 2.9.9 4.8.9s3.5-.3 4.8-.9c1.3-.6 2.4-1.4 3.2-2.5.8-1 1.4-2.2 1.8-3.6.4-1.4.6-2.8.6-4.2.2-1.4 0-2.8-.3-4.1"/><path class="st0" d="M156.6 14.1c0 .1.1.2.2.2.2.2.5.3 1 .5.3.1.9.1 1.2.1 1 0 2-.4 2.8-1.3.2-.3.8-1.2 1-1.7.7-1.9 1.4-5.2 2.5-6.7.1-.2.3-.4.3-.4v-.1c0-.1.1-.2-.1-.3 0 0-3.4-1.7-5.5 1.4-1 1.4-1.7 5.9-2.6 7.5-.1.3-.5.5-.6.6 0 0-.2.1-.2.2M219.9 29.8l-2.5-7.2h-10.2l-2.4 7.2h-6L209 .8c.4-.1.8-.3 1.5-.4.6-.1 1.3-.2 2-.2.3 0 .7 0 1.1.1.4.1.8.2 1.2.4.4.2.7.5 1.1.8.3.4.6.8.8 1.5l9.5 26.9h-6.3zm-7.5-24.2l-4 12.5h7.9l-3.9-12.5zM248.6 8.7c0 1.2-.2 2.3-.5 3.2-.3 1-.7 1.8-1.3 2.5-.5.7-1.1 1.3-1.8 1.8s-1.4.8-2.1 1.1l7.3 12.1c-.6.2-1.1.4-1.8.5-.6.1-1.2.2-1.8.2-1.1 0-2-.2-2.7-.7-.7-.5-1.4-1.2-2-2.3l-5-8.5h-2.4v11.1h-6.1V.4c1.3-.1 2.7-.3 4-.3 1.4-.1 2.6-.1 3.7-.1 4.3 0 7.4.7 9.4 2.2 2.1 1.4 3.1 3.6 3.1 6.5m-6.4.6c0-1.8-.5-3.1-1.5-3.9-1-.7-2.3-1.1-4-1.1h-1.4c-.4 0-.7.1-1 .1v10.2h2.1c1.7 0 3.1-.4 4.1-1.3 1.2-.9 1.7-2.2 1.7-4M259.3 5.2h-9.2c-.1-.4-.1-.7-.1-.9v-.8c0-.8.3-1.5.9-2.2.6-.7 1.5-1 2.9-1h20.7c.1.6.1 1.2.1 1.9 0 .4-.1.8-.2 1.1-.1.4-.3.7-.6 1-.3.3-.7.5-1.1.7-.5.2-1 .3-1.7.3h-5.5v24.6h-6.1V5.2zM116.3 12.6c-.3-.8-.7-1.5-1.2-2-.1-.1-.4-.4-.7-.6-.5-.4-1.6-1-2.9-1.3-.8-.2-1.8-.3-2.4-.3h-.5c-.8 0-1.5.1-1.8.1-8 .6-9.3 5-9.3 5v16.3h6.4v-15s1-1.2 2.9-1.5c.8-.1 1.5-.1 2.2.1.4.1.7.2 1 .5.2.2.3.4.4.6.2.4.3.9.3 1.4v13.9h5.9V16.1c0-.2.1-2.3-.3-3.5z"/></g></svg>